<svg width="328" height="186" xmlns="http://www.w3.org/2000/svg" xmlns:xlink="http://www.w3.org/1999/xlink" xml:space="preserve" overflow="hidden"><defs><clipPath id="clip0"><rect x="1455" y="280" width="328" height="186"/></clipPath></defs><g clip-path="url(#clip0)" transform="translate(-1455 -280)"><path d="M140.839 119.635 205.281 184.111 116.261 184.111 61.2249 129.038 61.2249 184.111-1.71964 184.111-1.71964-0.889013 61.2249-0.889013 61.2249 39.9699 93.6201 72.3842C114.237 67.197 129.569 48.5479 129.569 26.3381L129.569-0.889013 192.509-0.889013 192.509 26.3381C192.509 65.6347 171.828 100.074 140.839 119.635" fill="#FFFFFF" fill-rule="evenodd" transform="matrix(1 0 0 -1 1457 465)"/><path d="M36.1911 184.111C55.1719 184.111 73.3359 178.442 88.9078 167.736L111.361 152.177 80.2685 107.323 57.8235 122.887C51.4509 127.232 44.0092 129.564 36.1911 129.564 15.2511 129.564-1.8345 112.557-1.8345 91.5763-1.8345 70.6643 15.2511 53.5929 36.1911 53.5929 45.0782 53.5929 53.3413 56.5535 60.214 62.0988L81.3422 79.3582 115.835 37.03 94.6475 19.8349C78.2541 6.48003 57.4428-0.889529 36.1911-0.889529L118.165-0.889529 118.165 184.111 36.1911 184.111" fill="#FFFFFF" fill-rule="evenodd" transform="matrix(1 0 0 -1 1664 465)"/></g></svg>