<svg width="730" height="398" xmlns="http://www.w3.org/2000/svg" xmlns:xlink="http://www.w3.org/1999/xlink" xml:space="preserve" overflow="hidden"><defs><clipPath id="clip0"><rect x="1970" y="551" width="730" height="398"/></clipPath><linearGradient x1="162.174" y1="239.407" x2="229.879" y2="-39.3562" gradientUnits="userSpaceOnUse" spreadMethod="reflect" id="fill1"><stop offset="0" stop-color="#2EAEFF"/><stop offset="0.47852" stop-color="#006BFF"/><stop offset="0.51429" stop-color="#006BFF"/><stop offset="0.63695" stop-color="#006BFF"/><stop offset="1" stop-color="#2B40B1"/></linearGradient><linearGradient x1="155.919" y1="246.196" x2="236.135" y2="-43.2189" gradientUnits="userSpaceOnUse" spreadMethod="reflect" id="fill2"><stop offset="0" stop-color="#FF72BA"/><stop offset="0.57244" stop-color="#B016DD"/><stop offset="1" stop-color="#8035EF"/></linearGradient><linearGradient x1="265.327" y1="-13.2943" x2="11.7128" y2="209.345" gradientUnits="userSpaceOnUse" spreadMethod="reflect" id="fill3"><stop offset="0" stop-color="#FF72BA"/><stop offset="0.57244" stop-color="#B016DD"/><stop offset="1" stop-color="#8035EF"/></linearGradient><linearGradient x1="-24.0359" y1="159.797" x2="162.065" y2="36.2542" gradientUnits="userSpaceOnUse" spreadMethod="reflect" id="fill4"><stop offset="0" stop-color="#FF72BA"/><stop offset="0.57244" stop-color="#B016DD"/><stop offset="1" stop-color="#8035EF"/></linearGradient><linearGradient x1="238.527" y1="226.29" x2="35.5124" y2="-28.3118" gradientUnits="userSpaceOnUse" spreadMethod="reflect" id="fill5"><stop offset="0" stop-color="#2EAEFF"/><stop offset="0.47852" stop-color="#006BFF"/><stop offset="0.51429" stop-color="#006BFF"/><stop offset="0.63695" stop-color="#006BFF"/><stop offset="1" stop-color="#2B40B1"/></linearGradient><linearGradient x1="-19.0151" y1="176.33" x2="157.044" y2="21.649" gradientUnits="userSpaceOnUse" spreadMethod="reflect" id="fill6"><stop offset="0" stop-color="#2EAEFF"/><stop offset="0.47852" stop-color="#006BFF"/><stop offset="0.51429" stop-color="#006BFF"/><stop offset="0.63695" stop-color="#006BFF"/><stop offset="1" stop-color="#2B40B1"/></linearGradient></defs><g clip-path="url(#clip0)" transform="translate(-1970 -551)"><path d="M0.0268057 200.026C0.629398 75.6746 82.6565 0.0256153 199.544 0.0256153L199.544 0.0256153C299.304 0.0256153 372.337 58.0739 392.027 155.275L392.027 155.275 252.385 155.275 251.129 155.275 251.129 101.578C251.129 92.5265 240.729 87.4267 233.549 92.9774L233.549 92.9774 105.962 191.425C103.151 193.628 101.745 196.827 101.745 200.026L101.745 200.026Z" fill="url(#fill1)" fill-rule="evenodd" transform="matrix(1 0 0 -1 2307 949)"/><path d="M0.0268057 1.39447 0.0268057-0.0112565 101.745-0.0112565C101.745 3.20517 103.151 6.41838 105.962 8.62734L105.962 8.62734 233.549 107.517C240.729 113.092 251.129 107.966 251.129 98.8781L251.129 98.8781 251.129 47.0489 251.582 47.0489 392.027 47.0489C372.337 146.088 299.304 202.989 199.544 202.989L199.544 202.989C82.2002 202.989 0.0268057 126.452 0.0268057 1.39447" fill="url(#fill2)" fill-rule="evenodd" transform="matrix(1 0 0 -1 2307 754)"/><path d="M0.0198527 196.025 0.0198527 161.618 109.011 0.0254654 277.02 0.0254654C277.02 0.0254654 265.61 14.1397 248.918 34.8345L248.918 34.8345C203.47 91.1452 118.813 196.025 118.813 196.025L118.813 196.025Z" fill="url(#fill3)" fill-rule="evenodd" transform="matrix(1 0 0 -1 2104 945)"/><path d="M0.0145029 196.025 0.0145029 0.0254654 138.014 0.0254654 138.014 123.023 138.014 161.618 138.014 196.025Z" fill="url(#fill4)" fill-rule="evenodd" transform="matrix(1 0 0 -1 1970 945)"/><path d="M108.938 197.989 0.0198395 43.5155 0.0198395-0.0107161 118.734-0.0107161 274.02 197.989Z" fill="url(#fill5)" fill-rule="evenodd" transform="matrix(1 0 0 -1 2104 754)"/><path d="M0.0145029 197.989 0.0145029-0.0107161 138.014-0.0107161 138.014 43.5155 138.014 197.989Z" fill="url(#fill6)" fill-rule="evenodd" transform="matrix(1 0 0 -1 1970 754)"/></g></svg>